<?xml version="1.0" encoding="UTF-8"?>
<svg id="Layer_2" data-name="Layer 2" xmlns="http://www.w3.org/2000/svg" viewBox="0 0 539.61 169.09">
  <defs>
    <style>
      .cls-1 {
        fill: #005ead;
      }

      .cls-1, .cls-2, .cls-3 {
        stroke-width: 0px;
      }

      .cls-2 {
        fill: #fff;
      }

      .cls-3 {
        fill: #21409a;
      }
    </style>
  </defs>
  <g id="Layer_1-2" data-name="Layer 1">
    <path class="cls-2" d="M117.55,142.92l-71.54.26c-4.1.01-6.49-4.62-4.11-7.95l2.93-4.1c-1.84.54-3.68,1.01-5.53,1.43-10.81,4.51-21.87,7.69-33.68,10.7-1.47.25-2.94.41-4.39.52l-.31.44C.32,145.08,0,146.1,0,147.15l.06,16.93c.01,2.78,2.27,5.02,5.04,5.01l112.54-.41c2.78-.01,5.02-2.27,5.01-5.04l-.06-15.71c-.01-2.78-2.27-5.02-5.04-5.01Z"/>
    <path class="cls-2" d="M155.16,99.95c-3.17.51-6.34.89-9.53,1.18l.23,62.42c.01,2.78,2.27,5.02,5.04,5.01l19.84-.07c2.78-.01,5.02-2.27,5.01-5.04l-.25-67.7c-6.76,1.52-13.5,3.11-20.34,4.21Z"/>
    <path class="cls-2" d="M214.37,88.39c-.82.15-1.63.29-2.45.43l.29,78.4c0,.61.5,1.1,1.11,1.1l22.21-.08c.61,0,1.1-.5,1.1-1.11l-.3-83.26c-7.28,1.65-14.59,3.19-21.95,4.51Z"/>
    <g>
      <path class="cls-1" d="M19.53,149.21c9.13-2.99,18.39-5.46,27.71-7.74-2.83-1.17-4.13-4.81-2.16-7.57L121.95,26.5c.61-.86.94-1.89.94-2.94l-.06-17.04c-.01-2.78-2.27-5.02-5.04-5.01L13.63,1.89c-2.78.01-5.02,2.27-5.01,5.04l.05,13.64c.01,2.78,2.27,5.02,5.04,5.01l64.17-.23c4.09-.01,6.48,4.6,4.11,7.94L4.1,142.88c-.61.86-.93,1.88-.93,2.93l.05,13.3c4.97-4.45,10.56-8.03,16.31-9.91Z"/>
      <path class="cls-1" d="M178.71,104.57l-.36-98.26c-.01-2.78-2.27-5.02-5.04-5.01l-19.84.07c-2.78.01-5.02,2.27-5.01,5.04l.39,106.04c9.93-2.7,19.89-5.31,29.86-7.89Z"/>
      <path class="cls-1" d="M239.52,89.19l-.22-60.34c0-1.26,1.77-1.55,2.16-.34l18.02,55.96c9.17-2.11,18.37-4.13,27.59-6.03L261.81,1.75c-.15-.45-.58-.76-1.05-.76l-44.87.16c-.61,0-1.1.5-1.1,1.11l.34,92.99c8.13-2.06,16.26-4.08,24.4-6.06Z"/>
      <path class="cls-1" d="M307.83,74.4c1.96-.36,3.93-.57,5.89-.66,1.31-.81,2.64-1.56,4-2.22.9-.87,1.83-1.73,2.82-2.53,4.22-4.86,9.28-8.6,15.14-11.26l9.23-29.56c.38-1.21,2.16-.94,2.16.33l.08,23.16c4.77-2.68,9.57-5.28,14.5-7.64,5.04-2.41,10.44-3.7,15.95-4.15l-.14-38.2c0-.61-.5-1.1-1.11-1.1l-45.11.16c-.48,0-.91.31-1.05.77l-23.05,73.03c.23-.04.45-.09.68-.13Z"/>
      <path class="cls-1" d="M470.77,13.8c7.38-1.19,14.69-1.58,21.92-1.33l-3.02-8.89c-.69-2.04-2.62-3.42-4.78-3.41l-29.57.11c-2.17,0-4.08,1.4-4.76,3.46l-5.25,16c8.41-2.36,16.96-4.58,25.45-5.94Z"/>
    </g>
    <path class="cls-2" d="M346.43,55c-.81.23-1.63.45-2.44.67l.4,111.07c0,.61.5,1.1,1.11,1.1l28.28-.1c.61,0,1.1-.5,1.1-1.11l-.43-119.46c-9.22,2.96-18.74,5.24-28.03,7.83Z"/>
    <path class="cls-2" d="M307.2,65.67l-12.64,40.05c-.32,1.02-1.77,1.03-2.1.01l-10.96-33.26c-9.06,2.4-18.12,4.8-27.19,7.09l28.26,87.75c.15.46.58.77,1.06.77l14.05-.05c.48,0,.91-.32,1.05-.78l33.86-108.43c-8.45,2.31-16.92,4.59-25.38,6.85Z"/>
    <path class="cls-2" d="M539.34,160.52L486.5,4.92c-.69-2.04-2.62-3.42-4.78-3.41l-13.68.05c-3.04,3.29-7.41,7.61-10.41,9.86-4.63,3.48-10.07,6.23-15.21,8.82l-46.17,140.82c-1.07,3.26,1.37,6.6,4.79,6.59l14.91-.05c2.17,0,4.09-1.41,4.76-3.47l10.61-32.62c.67-2.06,2.59-3.46,4.76-3.47l56.53-.21c2.16,0,4.08,1.37,4.78,3.41l11.06,32.59c.69,2.05,2.62,3.42,4.78,3.41l21.35-.08c3.43-.01,5.85-3.39,4.74-6.64ZM483.33,103.92l-38.73.14c-2.37,0-4.06-2.3-3.33-4.56l19.15-59.33c1.04-3.21,5.58-3.23,6.64-.02l19.58,59.19c.75,2.25-.93,4.58-3.3,4.59Z"/>
    <g>
      <g>
        <path class="cls-3" d="M215.16,104.33c8.13-2.58,16.26-5.16,24.39-7.74l-.12-32.99-24.39,7.74.12,32.99Z"/>
        <path class="cls-3" d="M278.19,51.3l-26.61,8.44,9.65,29.97c8.94-2.84,17.87-5.67,26.81-8.51l-9.85-29.91Z"/>
        <path class="cls-3" d="M344.17,30.36l-25.71,8.16-11.59,36.71c8.61-2.73,17.23-5.47,25.84-8.2l11.45-36.66Z"/>
        <path class="cls-3" d="M377.54,19.77l-30.46,9.67.12,32.99,30.46-9.67-.12-32.99Z"/>
      </g>
      <path class="cls-3" d="M493.91,15.88l-4.23-12.47C488.98,1.36,487.06,0,484.9,0l-29.57.11c-2.17,0-4.08,1.4-4.76,3.46l-9.54,29.09c17.63-5.59,35.25-11.19,52.88-16.78Z"/>
      <path class="cls-3" d="M45.52,140.11c-1.55-1.64-1.95-4.28-.44-6.39l7.84-10.95-44.73,14.19-4.08,5.74c-.61.86-.93,1.88-.93,2.93l.06,16.93c.01,2.78,2.27,5.02,5.04,5.01l7.62-.03c14.25-4.52,28.49-9.04,42.74-13.56,13.13-4.17,26.26-8.33,39.38-12.5l-48.83.18c-1.5,0-2.77-.61-3.66-1.56Z"/>
      <path class="cls-3" d="M148.9,125.09c9.95-3.16,19.9-6.32,29.85-9.47l-.12-32.99-29.85,9.47.12,32.99Z"/>
    </g>
  </g>
</svg>